#!OML:ASF I:\Actors\actors\Patient Classification 2\Patient 1\Session 1\actor1.ASF
:FULLY-SPECIFIED
:DEGREES
433
root -0.566903 18.6515 6.19955 1.31047 0.090876 -4.10612
lowerback 4.23405 -0.152288 -1.60044
upperback -4.75378 -0.248646 1.20454
thorax -7.33477 0.000560577 2.18681
lowerneck -12.921 -0.654824 -2.24252
upperneck 11.3458 -1.49354 7.35505
head 5.62226 -0.279329 2.56056
rclavicle -1.3418e-015 -2.38542e-015
rhumerus -56.5015 -9.41627 -70.8122
rradius 46.5062
rwrist 10.8966
rhand -4.49245 -44.1558
rfingers 7.12502
rthumb 21.281 -73.0075
lclavicle -1.3418e-015 -2.38542e-015
lhumerus 32.1234 -20.694 51.351
lradius 138.185
lwrist 13.7812
lhand -22.7394 -53.1695
lfingers 7.12502
lthumb 3.6948 -23.2218
rfemur 0 0 0
rtibia 0
rfoot 0 0
rtoes 0
lfemur -4.82637 -6.63258 -10.7733
ltibia 24.247
lfoot -24.4093 11.4637
ltoes -55.3542
434
root -0.566985 18.6516 6.19847 1.29214 0.0939012 -4.10786
lowerback 4.24352 -0.152798 -1.59497
upperback -4.74169 -0.249595 1.19588
thorax -7.32728 -0.000663638 2.17471
lowerneck -12.9411 -0.652748 -2.346
upperneck 11.3886 -1.49081 7.47674
head 5.64058 -0.272363 2.61705
rclavicle 1.33186e-014 9.54166e-015
rhumerus -56.5342 -9.4104 -70.7935
rradius 46.4889
rwrist 10.8959
rhand -4.41121 -44.1313
rfingers 7.12502
rthumb 21.359 -72.9741
lclavicle 1.33186e-014 9.54166e-015
lhumerus 32.1029 -20.7267 51.3267
lradius 138.185
lwrist 13.8231
lhand -22.6993 -53.0937
lfingers 7.12502
lthumb 3.73349 -23.1466
rfemur 0 0 0
rtibia 0
rfoot 0 0
rtoes 0
lfemur -4.81299 -6.65686 -10.7774
ltibia 24.2559
lfoot -24.4205 11.4759
ltoes -55.3611
435
root -0.567813 18.6518 6.19807 1.25625 0.0968904 -4.14423
lowerback 4.27463 -0.154369 -1.57073
upperback -4.73048 -0.249964 1.19946
thorax -7.33335 -0.00205688 2.16504
lowerneck -12.9281 -0.654453 -2.3991
upperneck 11.4098 -1.4927 7.53515
head 5.64593 -0.271167 2.64441
rclavicle -3.37934e-015 3.57812e-015
rhumerus -56.5645 -9.40699 -70.7477
rradius 46.4559
rwrist 10.9557
rhand -4.27371 -44.0351
rfingers 7.12502
rthumb 21.4911 -72.8629
lclavicle -3.37934e-015 3.57812e-015
lhumerus 32.0735 -20.7547 51.3201
lradius 138.192
lwrist 13.8013
lhand -22.7417 -53.0398
lfingers 7.12502
lthumb 3.69255 -23.092
rfemur 0 0 0
rtibia 0
rfoot 0 0
rtoes 0
lfemur -4.78008 -6.65437 -10.7351
ltibia 24.2639
lfoot -24.4382 11.462
ltoes -55.3336
436
root -0.56778 18.6523 6.19745 1.24282 0.0862497 -4.1491
lowerback 4.26641 -0.14971 -1.57711
upperback -4.71561 -0.244256 1.19739
thorax -7.31291 0.00065328 2.16564
lowerneck -12.8963 -0.662168 -2.40725
upperneck 11.3965 -1.49774 7.5121
head 5.63646 -0.27657 2.63773
rclavicle 8.15017e-015 -5.96354e-015
rhumerus -56.5778 -9.39168 -70.7199
rradius 46.4424
rwrist 10.9776
rhand -4.24401 -44.1028
rfingers 7.12502
rthumb 21.5196 -72.9273
lclavicle 8.15017e-015 -5.96354e-015
lhumerus 32.0692 -20.7707 51.3344
lradius 138.189
lwrist 13.779
lhand -22.7537 -53.1115
lfingers 7.12502
lthumb 3.68099 -23.1635
rfemur 0 0 0
rtibia 0
rfoot 0 0
rtoes 0
lfemur -4.77427 -6.62398 -10.7273
ltibia 24.2719
lfoot -24.4556 11.4406
ltoes -55.3018
437
root -0.566673 18.6523 6.19658 1.24217 0.0880792 -4.12233
lowerback 4.22328 -0.140769 -1.61447
upperback -4.69474 -0.235211 1.18836
thorax -7.26594 0.00607023 2.17565
lowerneck -12.8804 -0.677196 -2.37371
upperneck 11.3859 -1.51174 7.42606
head 5.63015 -0.288793 2.60346
rclavicle -1.68967e-014 2.10712e-014
rhumerus -56.585 -9.35281 -70.7163
rradius 46.4561
rwrist 10.9274
rhand -4.31961 -44.3266
rfingers 7.12502
rthumb 21.447 -73.1594
lclavicle -1.68967e-014 2.10712e-014
lhumerus 32.0863 -20.783 51.3606
lradius 138.174
lwrist 13.7782
lhand -22.7169 -53.1806
lfingers 7.12502
lthumb 3.71649 -23.2333
rfemur 0 0 0
rtibia 0
rfoot 0 0
rtoes 0
lfemur -4.78334 -6.58556 -10.7599
ltibia 24.2825
lfoot -24.436 11.4308
ltoes -55.3565
438
root -0.565744 18.6519 6.19542 1.22617 0.0815916 -4.13322
lowerback 4.19932 -0.124408 -1.61965
upperback -4.66794 -0.213056 1.193
thorax -7.22443 0.0166554 2.18067
lowerneck -12.8804 -0.70257 -2.379
upperneck 11.3866 -1.539 7.38203
head 5.63138 -0.305546 2.58798
rclavicle 1.35671e-014 1.98785e-015
rhumerus -56.582 -9.34197 -70.6904
rradius 46.4491
rwrist 10.8868
rhand -4.39936 -44.4667
rfingers 7.12502
rthumb 21.3704 -73.3082
lclavicle 1.35671e-014 1.98785e-015
lhumerus 32.0981 -20.793 51.3959
lradius 138.166
lwrist 13.7695
lhand -22.6979 -53.0903
lfingers 7.12502
lthumb 3.73481 -23.1433
rfemur 0 0 0
rtibia 0
rfoot 0 0
rtoes 0
lfemur -4.76759 -6.51542 -10.7481
ltibia 24.2875
lfoot -24.383 11.4055
ltoes -55.461
439
root -0.564973 18.6517 6.19412 1.22312 0.0549877 -4.13932
lowerback 4.18814 -0.127226 -1.64577
upperback -4.6599 -0.217575 1.2105
thorax -7.20911 0.0160711 2.21404
lowerneck -12.9222 -0.704837 -2.49168
upperneck 11.4566 -1.53556 7.45836
head 5.6615 -0.30114 2.63197
rclavicle 4.07509e-015 3.97569e-015
rhumerus -56.5559 -9.29096 -70.6742
rradius 46.4191
rwrist 10.8768
rhand -4.426 -44.4829
rfingers 7.12502
rthumb 21.3448 -73.3273
lclavicle 4.07509e-015 3.97569e-015
lhumerus 32.0279 -20.7375 51.427
lradius 138.185
lwrist 13.8088
lhand -22.6121 -53.0739
lfingers 7.12502
lthumb 3.81768 -23.1283
rfemur 0 0 0
rtibia 0
rfoot 0 0
rtoes 0
lfemur -4.75911 -6.4772 -10.7443
ltibia 24.2889
lfoot -24.3665 11.3881
ltoes -55.5093
440
root -0.564532 18.6523 6.19333 1.24511 0.042856 -4.12773
lowerback 4.17041 -0.146961 -1.69251
upperback -4.67294 -0.246772 1.22033
thorax -7.21127 0.00458972 2.25363
lowerneck -12.9703 -0.684256 -2.58505
upperneck 11.5491 -1.50811 7.54923
head 5.69848 -0.282594 2.6798
rclavicle -7.65321e-015 -3.18055e-015
rhumerus -56.5277 -9.21153 -70.6829
rradius 46.3971
rwrist 10.8833
rhand -4.44004 -44.4287
rfingers 7.12502
rthumb 21.3313 -73.2747
lclavicle -7.65321e-015 -3.18055e-015
lhumerus 31.9385 -20.6546 51.4366
lradius 138.206
lwrist 13.862
lhand -22.5732 -53.1145
lfingers 7.12502
lthumb 3.8553 -23.1696
rfemur 0 0 0
rtibia 0
rfoot 0 0
rtoes 0
lfemur -4.78274 -6.47106 -10.7577
ltibia 24.2886
lfoot -24.3652 11.4019
ltoes -55.5348
441
root -0.563843 18.6531 6.1931 1.26435 0.0386793 -4.13362
lowerback 4.1375 -0.144727 -1.68833
upperback -4.67835 -0.243501 1.21307
thorax -7.1981 0.00563744 2.24307
lowerneck -12.9824 -0.681687 -2.58109
upperneck 11.5932 -1.50928 7.55836
head 5.71447 -0.281277 2.68246
rclavicle 7.55382e-015 7.95139e-016
rhumerus -56.5032 -9.22548 -70.6419
rradius 46.3727
rwrist 10.8755
rhand -4.45425 -44.3038
rfingers 7.12502
rthumb 21.3177 -73.1513
lclavicle 7.55382e-015 7.95139e-016
lhumerus 31.9364 -20.6456 51.4367
lradius 138.199
lwrist 13.8528
lhand -22.698 -53.1513
lfingers 7.12502
lthumb 3.73478 -23.2043
rfemur 0 0 0
rtibia 0
rfoot 0 0
rtoes 0
lfemur -4.80475 -6.46643 -10.7509
ltibia 24.2848
lfoot -24.3531 11.4191
ltoes -55.5394
